<svg xmlns="http://www.w3.org/2000/svg" xmlns:xlink="http://www.w3.org/1999/xlink" width="500" zoomAndPan="magnify" viewBox="0 0 375 374.999991" height="500" preserveAspectRatio="xMidYMid meet" version="1.0"><defs><clipPath id="4f8f4fa223"><path d="M 5.78125 153 L 164 153 L 164 197 L 5.78125 197 Z M 5.78125 153 " clip-rule="nonzero"/></clipPath><clipPath id="84d39b9c57"><path d="M 71 72.789062 L 369.53125 72.789062 L 369.53125 302.289062 L 71 302.289062 Z M 71 72.789062 " clip-rule="nonzero"/></clipPath></defs><path fill="#ffffff" d="M 179.800781 250.21875 C 176.917969 246.792969 174.277344 243.160156 171.886719 239.351562 C 171.339844 238.484375 170.8125 237.609375 170.296875 236.730469 C 170.183594 236.535156 170.074219 236.34375 169.960938 236.152344 C 169.445312 235.257812 168.9375 234.351562 168.449219 233.4375 C 168.421875 233.386719 168.390625 233.332031 168.363281 233.277344 C 165.003906 226.96875 162.316406 220.246094 160.398438 213.207031 L 142.902344 213.207031 C 144.628906 220.730469 147.101562 227.972656 150.230469 234.847656 L 81.550781 241.644531 L 179.800781 250.21875 " fill-opacity="1" fill-rule="nonzero"/><g clip-path="url(#4f8f4fa223)"><path fill="#ffffff" d="M 145.128906 153.484375 C 142.519531 161.902344 140.855469 170.738281 140.257812 179.871094 L 5.765625 187.476562 L 157.34375 196.054688 C 157.097656 193.226562 156.964844 190.371094 156.964844 187.476562 C 156.964844 184.589844 157.097656 181.726562 157.34375 178.902344 L 157.339844 178.902344 C 158.109375 170.035156 160.066406 161.511719 163.050781 153.484375 L 145.128906 153.484375 " fill-opacity="1" fill-rule="nonzero"/></g><g clip-path="url(#84d39b9c57)"><path fill="#ffffff" d="M 254.597656 72.886719 C 216.113281 72.886719 182.074219 91.867188 161.296875 120.960938 L 71.664062 127.757812 L 171.421875 136.332031 C 173.699219 132.636719 176.21875 129.113281 178.953125 125.769531 C 179.257812 125.394531 179.566406 125.023438 179.875 124.65625 C 180.148438 124.332031 180.421875 124.007812 180.699219 123.6875 C 181.003906 123.332031 181.3125 122.984375 181.621094 122.636719 C 181.914062 122.308594 182.207031 121.980469 182.507812 121.65625 C 182.8125 121.320312 183.117188 120.988281 183.425781 120.660156 C 183.738281 120.328125 184.050781 120 184.367188 119.675781 C 202.117188 101.289062 227.019531 89.84375 254.597656 89.84375 C 308.515625 89.84375 352.230469 133.554688 352.230469 187.476562 C 352.230469 241.398438 308.515625 285.109375 254.597656 285.109375 C 233.707031 285.109375 214.355469 278.546875 198.472656 267.371094 L 172.457031 267.371094 C 193.277344 288.769531 222.378906 302.066406 254.597656 302.066406 C 317.882812 302.066406 369.1875 250.765625 369.1875 187.476562 C 369.1875 124.1875 317.882812 72.886719 254.597656 72.886719 " fill-opacity="1" fill-rule="nonzero"/></g><path fill="#ffffff" d="M 205.949219 241.359375 L 249.492188 187.476562 L 256.804688 106.511719 L 264.113281 190.507812 C 264.113281 192.449219 263.347656 194.304688 261.976562 195.675781 L 205.949219 241.359375 " fill-opacity="1" fill-rule="nonzero"/></svg>